<?xml version="1.0" encoding="UTF-8" standalone="no"?>
<!-- Created with Inkscape (http://www.inkscape.org/) -->

<svg
   xmlns:dc="http://purl.org/dc/elements/1.1/"
   xmlns:cc="http://creativecommons.org/ns#"
   xmlns:rdf="http://www.w3.org/1999/02/22-rdf-syntax-ns#"
   xmlns:svg="http://www.w3.org/2000/svg"
   xmlns="http://www.w3.org/2000/svg"
   xmlns:xlink="http://www.w3.org/1999/xlink"
   xmlns:sodipodi="http://sodipodi.sourceforge.net/DTD/sodipodi-0.dtd"
   xmlns:inkscape="http://www.inkscape.org/namespaces/inkscape"
   width="610"
   height="100"
   viewBox="0 0 161.39584 26.458333"
   version="1.1"
   id="svg8"
   inkscape:version="0.92.4 (unknown)"
   sodipodi:docname="radio_amistad.svg">
  <defs
     id="defs2">
    <linearGradient
       inkscape:collect="always"
       id="linearGradient913">
      <stop
         style="stop-color:#008000;stop-opacity:1;"
         offset="0"
         id="stop909" />
      <stop
         style="stop-color:#94d400;stop-opacity:1"
         offset="1"
         id="stop911" />
    </linearGradient>
    <linearGradient
       inkscape:collect="always"
       id="linearGradient860">
      <stop
         style="stop-color:#ffacac;stop-opacity:1"
         offset="0"
         id="stop856" />
      <stop
         style="stop-color:#e30000;stop-opacity:1"
         offset="1"
         id="stop858" />
    </linearGradient>
    <radialGradient
       inkscape:collect="always"
       xlink:href="#linearGradient860"
       id="radialGradient862"
       cx="964.85785"
       cy="301.97214"
       fx="964.85785"
       fy="301.97214"
       r="136.99023"
       gradientTransform="matrix(0.26458333,0,0,0.21871439,-130.67298,126.59631)"
       gradientUnits="userSpaceOnUse" />
    <linearGradient
       inkscape:collect="always"
       xlink:href="#linearGradient913"
       id="linearGradient915"
       x1="103.38125"
       y1="193.03658"
       x2="103.38125"
       y2="71.957596"
       gradientUnits="userSpaceOnUse" />
  </defs>
  <sodipodi:namedview
     id="base"
     pagecolor="#ffffff"
     bordercolor="#666666"
     borderopacity="1.0"
     inkscape:pageopacity="0.0"
     inkscape:pageshadow="2"
     inkscape:zoom="0.69935526"
     inkscape:cx="421.00997"
     inkscape:cy="330.67044"
     inkscape:document-units="mm"
     inkscape:current-layer="layer1"
     showgrid="false"
     inkscape:window-width="1920"
     inkscape:window-height="1016"
     inkscape:window-x="0"
     inkscape:window-y="27"
     inkscape:window-maximized="1"
     units="px" />
  <metadata
     id="metadata5">
    <rdf:RDF>
      <cc:Work
         rdf:about="">
        <dc:format>image/svg+xml</dc:format>
        <dc:type
           rdf:resource="http://purl.org/dc/dcmitype/StillImage" />
        <dc:title></dc:title>
      </cc:Work>
    </rdf:RDF>
  </metadata>
  <g
     inkscape:label="Capa 1"
     inkscape:groupmode="layer"
     id="layer1"
     transform="translate(0,-270.54168)">
    <g
       id="g991"
       transform="matrix(0.74549185,0,0,0.74479669,-17.456461,160.10961)">
      <g
         transform="matrix(0.47060925,0,0,0.47060925,12.396231,80.641496)"
         id="g884">
        <path
           style="opacity:1;fill:url(#radialGradient862);fill-opacity:1;stroke:none;stroke-width:0.12952432;stroke-linecap:round;stroke-linejoin:round;stroke-miterlimit:4;stroke-dasharray:none;stroke-dashoffset:0;stroke-opacity:1;paint-order:stroke fill markers"
           d="m 111.53798,159.26934 a 36.245384,29.958757 0 0 0 -36.245334,29.95889 36.245384,29.958757 0 0 0 36.245334,29.9589 36.245384,29.958757 0 0 0 19.2536,-4.59301 c 1.61605,2.76982 4.4339,4.59869 7.65483,4.59869 5.04055,0 9.09867,-4.47502 9.09867,-10.03401 v -16.62586 a 36.245384,29.958757 0 0 0 0.23823,-3.30471 36.245384,29.958757 0 0 0 -36.24533,-29.95889 z m 5.95881,27.6226 a 10.514316,9.8558939 0 0 1 10.5146,9.85573 10.514316,9.8558939 0 0 1 -10.5146,9.85573 10.514316,9.8558939 0 0 1 -10.51409,-9.85573 10.514316,9.8558939 0 0 1 10.51409,-9.85573 z"
           id="path826"
           inkscape:connector-curvature="0" />
        <path
           style="opacity:1;fill:#201b18;fill-opacity:1;stroke:none;stroke-width:0.05408277;stroke-linecap:round;stroke-linejoin:round;stroke-miterlimit:4;stroke-dasharray:none;stroke-dashoffset:0;stroke-opacity:1;paint-order:stroke fill markers"
           d="m 114.84837,183.04773 a 14.21145,13.321514 0 0 0 -14.21102,13.32167 14.21145,13.321514 0 0 0 14.21102,13.32166 14.21145,13.321514 0 0 0 14.21153,-13.32166 14.21145,13.321514 0 0 0 -14.21153,-13.32167 z m 2.64842,3.84421 a 10.514316,9.8558939 0 0 1 10.5146,9.85573 10.514316,9.8558939 0 0 1 -10.5146,9.85573 10.514316,9.8558939 0 0 1 -10.51409,-9.85573 10.514316,9.8558939 0 0 1 10.51409,-9.85573 z"
           id="ellipse828"
           inkscape:connector-curvature="0" />
        <path
           style="opacity:1;fill:url(#linearGradient915);fill-opacity:1;stroke:none;stroke-width:0.11913297;stroke-linecap:round;stroke-linejoin:round;stroke-miterlimit:4;stroke-dasharray:none;stroke-dashoffset:0;stroke-opacity:1;paint-order:stroke fill markers"
           d="m 111.09223,146.98788 a 45.621726,36.652251 0 0 0 -38.199478,16.63541 16.712907,16.712907 0 0 0 -12.7134,16.20962 16.712907,16.712907 0 0 0 12.08118,16.05052 39.709763,35.511935 0 0 1 -0.57143,-5.98771 39.709763,35.511935 0 0 1 39.709808,-35.51203 39.709763,35.511935 0 0 1 26.82138,9.38317 39.41445,33.006617 0 0 1 0.73342,0.55796 16.712907,16.712907 0 0 0 -0.0415,0.0189 39.709763,35.511935 0 0 1 12.19628,25.55197 39.709763,35.511935 0 0 1 -0.56987,5.74437 16.712907,16.712907 0 0 0 11.33726,-15.80719 16.712907,16.712907 0 0 0 -12.58529,-16.17375 45.621726,36.652251 0 0 0 -38.19851,-16.67128 z"
           id="path836"
           inkscape:connector-curvature="0" />
        <path
           style="opacity:1;fill:#349e00;fill-opacity:1;stroke:none;stroke-width:0.11617212;stroke-linecap:round;stroke-linejoin:round;stroke-miterlimit:4;stroke-dasharray:none;stroke-dashoffset:0;stroke-opacity:1;paint-order:stroke fill markers"
           d="m 79.313512,143.70718 a 43.544738,39.130618 0 0 0 -37.97391,38.76043 43.544738,39.130618 0 0 0 27.12237,36.21742 43.544738,41.53826 0 0 1 -20.43441,-35.1472 43.544738,41.53826 0 0 1 31.28595,-39.83065 z"
           id="path864"
           inkscape:connector-curvature="0" />
        <path
           inkscape:connector-curvature="0"
           id="path869"
           d="m 61.389942,143.70718 a 43.544738,39.130618 0 0 0 -37.97391,38.76043 43.544738,39.130618 0 0 0 27.12237,36.21742 43.544738,41.53826 0 0 1 -20.43441,-35.1472 43.544738,41.53826 0 0 1 31.28595,-39.83065 z"
           style="opacity:1;fill:#349e00;fill-opacity:1;stroke:none;stroke-width:0.11617212;stroke-linecap:round;stroke-linejoin:round;stroke-miterlimit:4;stroke-dasharray:none;stroke-dashoffset:0;stroke-opacity:1;paint-order:stroke fill markers" />
      </g>
      <g
         id="g968">
        <path
           inkscape:connector-curvature="0"
           id="path917"
           style="font-style:normal;font-variant:normal;font-weight:bold;font-stretch:normal;font-size:25.57303619px;line-height:1.25;font-family:Oduda;-inkscape-font-specification:'Oduda, Bold';font-variant-ligatures:normal;font-variant-caps:normal;font-variant-numeric:normal;font-feature-settings:normal;text-align:start;letter-spacing:-1.01984024px;word-spacing:0px;writing-mode:lr-tb;text-anchor:start;fill:#000000;fill-opacity:1;stroke:none;stroke-width:1.36999381"
           d="m 107.32885,167.27081 -2.83861,-4.80774 c 1.84126,-0.97177 3.06876,-2.91532 3.06876,-5.16575 0,-3.2222 -2.60845,-5.85622 -5.85622,-5.85622 h -3.989396 c -1.09964,0 -2.020269,0.92063 -2.020269,2.04584 v 14.83236 c 0,1.12521 0.920629,2.04584 2.020269,2.04584 1.150787,0 2.071416,-0.92063 2.071416,-2.04584 v -5.14018 h 0.3836 l 3.63137,6.18867 c 0.63932,1.07407 1.8924,1.22751 2.78746,0.69048 0.97177,-0.58818 1.30422,-1.79012 0.74162,-2.78746 z m -3.83596,-9.97349 c 0,1.02292 -0.79276,1.79011 -1.79011,1.79011 H 99.7848 v -3.55465 h 1.91798 c 0.99735,0 1.79011,0.79277 1.79011,1.76454 z" />
        <path
           inkscape:connector-curvature="0"
           id="path919"
           style="font-style:normal;font-variant:normal;font-weight:bold;font-stretch:normal;font-size:25.57303619px;line-height:1.25;font-family:Oduda;-inkscape-font-specification:'Oduda, Bold';font-variant-ligatures:normal;font-variant-caps:normal;font-variant-numeric:normal;font-feature-settings:normal;text-align:start;letter-spacing:-1.01984024px;word-spacing:0px;writing-mode:lr-tb;text-anchor:start;fill:#000000;fill-opacity:1;stroke:none;stroke-width:1.36999381"
           d="m 118.65119,157.57862 c -0.61375,0 -1.12521,0.25574 -1.48323,0.71605 -0.97178,-0.51146 -2.02027,-0.81834 -3.14549,-0.81834 -3.60579,0 -6.54669,2.9409 -6.54669,6.5467 0,3.6058 2.9409,6.5467 6.54669,6.5467 1.17636,0 2.22486,-0.30688 3.19663,-0.81834 0.35803,0.35802 0.86949,0.61375 1.43209,0.61375 1.0485,0 1.91798,-0.86948 1.91798,-1.91797 v -8.95057 c 0,-1.04849 -0.86948,-1.91798 -1.91798,-1.91798 z m -4.62872,8.92499 c -1.38094,0 -2.48058,-1.09964 -2.48058,-2.48058 0,-1.38094 1.09964,-2.48058 2.48058,-2.48058 1.38095,0 2.48059,1.09964 2.48059,2.48058 0,1.38094 -1.09964,2.48058 -2.48059,2.48058 z" />
        <path
           inkscape:connector-curvature="0"
           id="path921"
           style="font-style:normal;font-variant:normal;font-weight:bold;font-stretch:normal;font-size:25.57303619px;line-height:1.25;font-family:Oduda;-inkscape-font-specification:'Oduda, Bold';font-variant-ligatures:normal;font-variant-caps:normal;font-variant-numeric:normal;font-feature-settings:normal;text-align:start;letter-spacing:-1.01984024px;word-spacing:0px;writing-mode:lr-tb;text-anchor:start;fill:#000000;fill-opacity:1;stroke:none;stroke-width:1.36999381"
           d="m 120.95665,164.02303 c 0,3.6058 2.9409,6.5467 6.54669,6.5467 1.15079,0 2.25043,-0.30688 3.19663,-0.81834 0.35803,0.3836 0.84391,0.61375 1.40652,0.61375 1.07407,0 1.94355,-0.86948 1.94355,-1.91797 v -12.93996 c 0,-1.0485 -0.86948,-1.91798 -1.8924,-1.94355 h -0.17901 c -1.12522,0 -1.9947,0.92063 -1.9947,2.02027 v 2.37829 c -0.76719,-0.30688 -1.6111,-0.48589 -2.48059,-0.48589 -3.60579,0 -6.54669,2.9409 -6.54669,6.5467 z m 4.06611,0 c 0,-1.38094 1.09964,-2.48058 2.48058,-2.48058 1.38095,0 2.48059,1.09964 2.48059,2.48058 0,1.38094 -1.09964,2.48058 -2.48059,2.48058 -1.38094,0 -2.48058,-1.09964 -2.48058,-2.48058 z" />
        <path
           inkscape:connector-curvature="0"
           id="path923"
           style="font-style:normal;font-variant:normal;font-weight:bold;font-stretch:normal;font-size:25.57303619px;line-height:1.25;font-family:Oduda;-inkscape-font-specification:'Oduda, Bold';font-variant-ligatures:normal;font-variant-caps:normal;font-variant-numeric:normal;font-feature-settings:normal;text-align:start;letter-spacing:-1.01984024px;word-spacing:0px;writing-mode:lr-tb;text-anchor:start;fill:#000000;fill-opacity:1;stroke:none;stroke-width:1.36999381"
           d="m 138.84567,155.09804 c 0,0.97178 -0.79277,1.76454 -1.73897,1.76454 -0.97177,0 -1.76454,-0.79276 -1.76454,-1.76454 0,-0.9462 0.79277,-1.73897 1.76454,-1.73897 0.9462,0 1.73897,0.79277 1.73897,1.73897 z m -1.73897,15.2671 c -1.12521,0 -2.04584,-0.92063 -2.04584,-2.04584 v -8.84827 c 0,-1.12521 0.92063,-2.04584 2.04584,-2.04584 1.12522,0 2.04584,0.92063 2.04584,2.04584 v 8.84827 c 0,1.12521 -0.92062,2.04584 -2.04584,2.04584 z" />
        <path
           inkscape:connector-curvature="0"
           id="path925"
           style="font-style:normal;font-variant:normal;font-weight:bold;font-stretch:normal;font-size:25.57303619px;line-height:1.25;font-family:Oduda;-inkscape-font-specification:'Oduda, Bold';font-variant-ligatures:normal;font-variant-caps:normal;font-variant-numeric:normal;font-feature-settings:normal;text-align:start;letter-spacing:-1.01984024px;word-spacing:0px;writing-mode:lr-tb;text-anchor:start;fill:#000000;fill-opacity:1;stroke:none;stroke-width:1.36999381"
           d="m 146.32567,157.47633 c -3.6058,0 -6.5467,2.9409 -6.5467,6.5467 0,3.6058 2.9409,6.5467 6.5467,6.5467 3.6058,0 6.5467,-2.9409 6.5467,-6.5467 0,-3.6058 -2.9409,-6.5467 -6.5467,-6.5467 z m 0,4.06612 c 1.38094,0 2.48058,1.09964 2.48058,2.48058 0,1.38094 -1.09964,2.48058 -2.48058,2.48058 -1.38095,0 -2.48059,-1.09964 -2.48059,-2.48058 0,-1.38094 1.09964,-2.48058 2.48059,-2.48058 z" />
        <path
           inkscape:connector-curvature="0"
           id="path927"
           style="font-style:normal;font-variant:normal;font-weight:bold;font-stretch:normal;font-size:25.57303619px;line-height:1.25;font-family:Oduda;-inkscape-font-specification:'Oduda, Bold';font-variant-ligatures:normal;font-variant-caps:normal;font-variant-numeric:normal;font-feature-settings:normal;text-align:start;letter-spacing:-1.01984024px;word-spacing:0px;writing-mode:lr-tb;text-anchor:start;fill:#000000;fill-opacity:1;stroke:none;stroke-width:1.36999381"
           d="m 171.89013,167.50096 -6.62342,-14.80679 c -0.23016,-0.48588 -0.58818,-0.86948 -1.07407,-1.07406 -0.51146,-0.20459 -1.15078,-0.20459 -1.66225,0 -0.46031,0.20458 -0.86948,0.58818 -1.07406,1.07406 l -6.62342,14.80679 c -0.46031,1.02292 0,2.25043 1.02292,2.68517 0.89506,0.3836 2.14814,0.12787 2.68517,-1.04849 l 0.92063,-2.02027 h 7.82535 l 0.89506,2.02027 c 0.53703,1.20193 1.84125,1.48323 2.68516,1.04849 0.99735,-0.51146 1.48324,-1.66225 1.02293,-2.68517 z m -10.58724,-4.44971 2.07142,-4.65429 2.07141,4.65429 z" />
        <path
           inkscape:connector-curvature="0"
           id="path929"
           style="font-style:normal;font-variant:normal;font-weight:bold;font-stretch:normal;font-size:25.57303619px;line-height:1.25;font-family:Oduda;-inkscape-font-specification:'Oduda, Bold';font-variant-ligatures:normal;font-variant-caps:normal;font-variant-numeric:normal;font-feature-settings:normal;text-align:start;letter-spacing:-1.01984024px;word-spacing:0px;writing-mode:lr-tb;text-anchor:start;fill:#000000;fill-opacity:1;stroke:none;stroke-width:1.36999381"
           d="m 185.80734,157.45076 c -1.35537,0 -2.63403,0.51146 -3.6058,1.30422 -0.97178,-0.79276 -2.25043,-1.30422 -3.6058,-1.30422 -0.89505,0 -1.73897,0.20458 -2.48058,0.58818 -0.33245,-0.2813 -0.74162,-0.46032 -1.22751,-0.46032 -1.04849,0 -1.91798,0.84391 -1.91798,1.94356 v 8.79712 c 0,1.12521 0.92063,2.04584 2.02027,2.04584 1.12522,0 2.04585,-0.92063 2.04585,-2.04584 v -5.24247 c 0,-0.86949 0.69047,-1.55996 1.55995,-1.55996 0.84391,0 1.55996,0.69047 1.55996,1.55996 v 5.24247 c 0,1.12521 0.9462,2.04584 2.04584,2.04584 1.12521,0 2.04584,-0.92063 2.04584,-2.04584 v -5.24247 c 0,-0.86949 0.71605,-1.55996 1.55996,-1.55996 0.86948,0 1.55995,0.69047 1.55995,1.55996 v 5.24247 c 0,1.12521 0.94621,2.04584 2.04585,2.04584 1.09964,0 2.04584,-0.92063 2.04584,-2.04584 v -5.24247 c 0,-3.09434 -2.55731,-5.62607 -5.65164,-5.62607 z" />
        <path
           inkscape:connector-curvature="0"
           id="path931"
           style="font-style:normal;font-variant:normal;font-weight:bold;font-stretch:normal;font-size:25.57303619px;line-height:1.25;font-family:Oduda;-inkscape-font-specification:'Oduda, Bold';font-variant-ligatures:normal;font-variant-caps:normal;font-variant-numeric:normal;font-feature-settings:normal;text-align:start;letter-spacing:-1.01984024px;word-spacing:0px;writing-mode:lr-tb;text-anchor:start;fill:#000000;fill-opacity:1;stroke:none;stroke-width:1.36999381"
           d="m 196.01326,155.09804 c 0,0.97178 -0.79276,1.76454 -1.73896,1.76454 -0.97178,0 -1.76454,-0.79276 -1.76454,-1.76454 0,-0.9462 0.79276,-1.73897 1.76454,-1.73897 0.9462,0 1.73896,0.79277 1.73896,1.73897 z m -1.73896,15.2671 c -1.12522,0 -2.04585,-0.92063 -2.04585,-2.04584 v -8.84827 c 0,-1.12521 0.92063,-2.04584 2.04585,-2.04584 1.12521,0 2.04584,0.92063 2.04584,2.04584 v 8.84827 c 0,1.12521 -0.92063,2.04584 -2.04584,2.04584 z" />
        <path
           inkscape:connector-curvature="0"
           id="path933"
           style="font-style:normal;font-variant:normal;font-weight:bold;font-stretch:normal;font-size:25.57303619px;line-height:1.25;font-family:Oduda;-inkscape-font-specification:'Oduda, Bold';font-variant-ligatures:normal;font-variant-caps:normal;font-variant-numeric:normal;font-feature-settings:normal;text-align:start;letter-spacing:-1.01984024px;word-spacing:0px;writing-mode:lr-tb;text-anchor:start;fill:#000000;fill-opacity:1;stroke:none;stroke-width:1.36999381"
           d="m 201.95888,160.95427 c -0.48589,-0.15344 -1.20193,-0.33245 -1.3298,0.23015 -0.12786,0.51146 0.79276,0.76719 1.17636,0.84391 0.76719,0.15344 1.50881,0.58818 2.04584,1.17636 1.17636,1.22751 1.43209,3.17106 0.76719,4.70544 -0.69047,1.58553 -2.276,2.53173 -3.96382,2.63402 -0.9462,0.0512 -2.91532,-0.20458 -3.70809,-1.25307 -0.99735,-1.3298 -0.0256,-3.19663 1.58553,-3.11992 0.63933,0.0256 1.3298,0.51147 1.86683,0.53704 0.92063,0.0767 1.12522,-1.0485 0.25573,-1.27865 -1.6111,-0.48589 -2.78746,-1.12522 -3.52908,-2.60845 -0.53703,-1.12522 -0.40916,-2.53173 0.35803,-3.55465 1.2275,-1.66225 3.55465,-2.22486 5.47263,-1.48324 1.02292,0.40917 1.86683,1.45766 1.2275,2.58288 -0.46031,0.76719 -1.25308,0.92062 -2.22485,0.58818 z" />
        <path
           inkscape:connector-curvature="0"
           id="path935"
           style="font-style:normal;font-variant:normal;font-weight:bold;font-stretch:normal;font-size:25.57303619px;line-height:1.25;font-family:Oduda;-inkscape-font-specification:'Oduda, Bold';font-variant-ligatures:normal;font-variant-caps:normal;font-variant-numeric:normal;font-feature-settings:normal;text-align:start;letter-spacing:-1.01984024px;word-spacing:0px;writing-mode:lr-tb;text-anchor:start;fill:#000000;fill-opacity:1;stroke:none;stroke-width:1.36999381"
           d="m 211.52148,166.27346 h -0.3836 c -0.74161,0 -1.07406,-0.61376 -1.07406,-1.25308 v -3.8871 h 1.86683 c 0.99735,0 1.79011,-0.79277 1.79011,-1.76454 0,-0.99735 -0.79276,-1.79012 -1.79011,-1.79012 h -1.86683 v -2.02027 c 0,-1.12521 -0.92063,-2.04584 -2.04585,-2.04584 -1.12521,0 -2.04584,0.92063 -2.04584,2.04584 v 9.46203 c 0,2.96647 2.14814,5.34476 5.16575,5.34476 h 0.3836 c 1.12521,0 2.04584,-0.92063 2.04584,-2.04584 0,-1.12521 -0.92063,-2.04584 -2.04584,-2.04584 z" />
        <path
           inkscape:connector-curvature="0"
           id="path937"
           style="font-style:normal;font-variant:normal;font-weight:bold;font-stretch:normal;font-size:25.57303619px;line-height:1.25;font-family:Oduda;-inkscape-font-specification:'Oduda, Bold';font-variant-ligatures:normal;font-variant-caps:normal;font-variant-numeric:normal;font-feature-settings:normal;text-align:start;letter-spacing:-1.01984024px;word-spacing:0px;writing-mode:lr-tb;text-anchor:start;fill:#000000;fill-opacity:1;stroke:none;stroke-width:1.36999381"
           d="m 224.51286,157.57862 c -0.61375,0 -1.12521,0.25574 -1.48323,0.71605 -0.97178,-0.51146 -2.02027,-0.81834 -3.14549,-0.81834 -3.60579,0 -6.54669,2.9409 -6.54669,6.5467 0,3.6058 2.9409,6.5467 6.54669,6.5467 1.17636,0 2.22486,-0.30688 3.19663,-0.81834 0.35803,0.35802 0.86949,0.61375 1.43209,0.61375 1.0485,0 1.91798,-0.86948 1.91798,-1.91797 v -8.95057 c 0,-1.04849 -0.86948,-1.91798 -1.91798,-1.91798 z m -4.62872,8.92499 c -1.38094,0 -2.48058,-1.09964 -2.48058,-2.48058 0,-1.38094 1.09964,-2.48058 2.48058,-2.48058 1.38095,0 2.48059,1.09964 2.48059,2.48058 0,1.38094 -1.09964,2.48058 -2.48059,2.48058 z" />
        <path
           inkscape:connector-curvature="0"
           id="path939"
           style="font-style:normal;font-variant:normal;font-weight:bold;font-stretch:normal;font-size:25.57303619px;line-height:1.25;font-family:Oduda;-inkscape-font-specification:'Oduda, Bold';font-variant-ligatures:normal;font-variant-caps:normal;font-variant-numeric:normal;font-feature-settings:normal;text-align:start;letter-spacing:-1.01984024px;word-spacing:0px;writing-mode:lr-tb;text-anchor:start;fill:#000000;fill-opacity:1;stroke:none;stroke-width:1.36999381"
           d="m 226.81832,164.02303 c 0,3.6058 2.9409,6.5467 6.54669,6.5467 1.15079,0 2.25043,-0.30688 3.19663,-0.81834 0.35803,0.3836 0.84391,0.61375 1.40652,0.61375 1.07407,0 1.94355,-0.86948 1.94355,-1.91797 v -12.93996 c 0,-1.0485 -0.86948,-1.91798 -1.8924,-1.94355 h -0.17902 c -1.12521,0 -1.99469,0.92063 -1.99469,2.02027 v 2.37829 c -0.76719,-0.30688 -1.6111,-0.48589 -2.48059,-0.48589 -3.60579,0 -6.54669,2.9409 -6.54669,6.5467 z m 4.06611,0 c 0,-1.38094 1.09964,-2.48058 2.48058,-2.48058 1.38095,0 2.48059,1.09964 2.48059,2.48058 0,1.38094 -1.09964,2.48058 -2.48059,2.48058 -1.38094,0 -2.48058,-1.09964 -2.48058,-2.48058 z" />
        <text
           xml:space="preserve"
           style="font-style:normal;font-variant:normal;font-weight:normal;font-stretch:normal;font-size:9.24189949px;line-height:1.25;font-family:Arial;-inkscape-font-specification:Arial;font-variant-ligatures:normal;font-variant-caps:normal;font-variant-numeric:normal;font-feature-settings:normal;text-align:start;letter-spacing:0px;word-spacing:0px;writing-mode:lr-tb;text-anchor:start;fill:#000000;fill-opacity:1;stroke:none;stroke-width:0.49510178"
           x="201.55882"
           y="180.51317"
           id="text888"><tspan
             sodipodi:role="line"
             id="tspan886"
             x="201.55882"
             y="180.51317"
             style="stroke-width:0.49510178">100.5 FM</tspan></text>
      </g>
    </g>
  </g>
</svg>
